<svg id="Layer_1" data-name="Layer 1" xmlns="http://www.w3.org/2000/svg" viewBox="0 0 377.22 145.24"><title>SK Telecom logo - Brandlogos.net</title><path d="M561.31,421a15,15,0,0,0-11.78,5.59,10.51,10.51,0,0,0-9.78-5.59,15.08,15.08,0,0,0-10.8,4.39c-.27-1-1.6-3.77-5.79-3.77a17.67,17.67,0,0,0-3.14.42,48,48,0,0,1,1,9.93v23.35h8.54v-23.8c.17-.15,3.37-3.39,7.21-3.39S542.5,431,542.5,435v20.4h8.58V431.55c.17-.16,3.31-3.38,7.21-3.38S564,431,564,435v20.4h8.62V433.62c0-7.63-4.34-12.59-11.3-12.59" transform="translate(-195.39 -311.38)" style="fill:#ee7601"/><path d="M467.58,449.19c-5.81,0-10-4.59-10-10.58,0-6.68,4.72-10.66,9.95-10.66,2.83,0,4,.86,5.89.86s3.07-1,4.05-2.89l.87-1.68A22.18,22.18,0,0,0,466.28,421c-10.77,0-17.22,7.72-17.22,17.58,0,10.75,7.37,17.5,17.22,17.5a21.4,21.4,0,0,0,12.23-3.46l-3-5.85a15,15,0,0,1-8,2.39" transform="translate(-195.39 -311.38)" style="fill:#ee7601"/><path d="M367.25,434.86c0-3.83,2.69-7.39,6.46-7.39,4.22,0,6.55,3.67,6.62,7.39Zm6.6-13.82c-8.19,0-15.1,6.66-15.1,17.57,0,11.17,6.7,17.5,16.72,17.5,8,0,12.08-3.48,12.58-3.81l-1-1.61a4.25,4.25,0,0,0-3.8-2.42c-2.82,0-3.18,1.17-7,1.17-6.55,0-8.82-5.11-9-8.52H389.2v-2.54c0-10.46-6-17.35-15.36-17.35" transform="translate(-195.39 -311.38)" style="fill:#ee7601"/><path d="M403.83,445.91v-35c0-3.95-2.64-7-6.72-7h-1.83v45.4c0,4.18,2.59,6.78,7.09,6.78,5.54,0,7.21-3.95,7.21-7.66a6.66,6.66,0,0,1-2.59.6,2.88,2.88,0,0,1-3.15-3.14" transform="translate(-195.39 -311.38)" style="fill:#ee7601"/><path d="M346.66,444.72V428.1h7.15l2.49-6.44h-9.64V411.61h-.79c-3.81,0-7.75,1.61-7.75,10v.08H331.8v6.43h6.32v19.59c0,5.54,3.28,8.43,7.93,8.43,3.76,0,8.61-1.15,8.61-8.6a8.41,8.41,0,0,1-4.12,1.35c-2.78,0-3.88-1.69-3.88-4.14" transform="translate(-195.39 -311.38)" style="fill:#ee7601"/><path d="M420.9,434.86c0-3.83,2.69-7.39,6.46-7.39,4.22,0,6.55,3.67,6.62,7.39Zm6.6-13.82c-8.19,0-15.1,6.66-15.1,17.57,0,11.17,6.7,17.5,16.71,17.5,8,0,12.08-3.48,12.58-3.81l-1-1.61a4.25,4.25,0,0,0-3.8-2.42c-2.82,0-3.18,1.17-7,1.17-6.55,0-8.82-5.11-9-8.52h21.93v-2.54c0-10.46-6-17.35-15.36-17.35" transform="translate(-195.39 -311.38)" style="fill:#ee7601"/><path d="M498.11,449.53c5.25,0,8.27-4.51,8.27-10.94s-3-11-8.27-11c-5.16,0-8.26,4.47-8.26,11,0,6.28,2.95,10.94,8.26,10.94m0,6.58c-10.46,0-16.76-6.91-16.76-17.53S487.56,421,498.11,421s16.78,7,16.78,17.56c0,10-5.74,17.53-16.78,17.53" transform="translate(-195.39 -311.38)" style="fill:#ee7601"/><path d="M222.71,418c-5.16-2.41-9.4-4.36-9.4-8.31,0-3,2.41-5.21,7.18-5.21a24.69,24.69,0,0,1,4.67.48,14.46,14.46,0,0,0,2.29.25c4.16,0,6.51-2.48,8.07-7.19l.65-1.93a43.48,43.48,0,0,0-16.34-3.26c-14.11,0-21.56,9-21.55,18.44a15.89,15.89,0,0,0,3.81,10.87c3,3.47,7.25,5.75,11.24,7.7,5.82,2.85,11.06,5,11.06,9.19,0,3.75-3.88,5.89-9.06,5.89-7.1,0-13.31-4.06-14.1-4.55l-5.83,10.93c1,.59,8.55,5.35,20.91,5.35,13.17,0,23.14-7.55,23.14-19.18S230.19,421.6,222.71,418" transform="translate(-195.39 -311.38)" style="fill:#e1002a"/><path d="M274.21,423.37l23.89-29.29h-17L262,419.36h-.28V394.08h-14v62h.84c6.06,0,13.28-2.81,13.28-12.94V428.94h.29l19.42,26.41h17.85Z" transform="translate(-195.39 -311.38)" style="fill:#e1002a"/><path d="M298.89,327.63c-4.94.93-12.26,5.42-12.24,13.34,0,7.2,5.91,11.56,5.93,21a16.7,16.7,0,0,1-8.11,14.53c1.71-.15,3.58-.25,5.64-.25a46.93,46.93,0,0,1,7.09.43l22.16-27.19a92.2,92.2,0,0,0-20.46-21.85" transform="translate(-195.39 -311.38)" style="fill:#e1002a"/><path d="M317.51,401.05c2.79-4.34,3.14-11.26,3.38-18.31.26-6.57,1.63-11.52,10.43-11.55,1.95,0,3.81.26,7.17.25A51.83,51.83,0,0,0,365,364a92,92,0,0,0-45.66-14.56c-1.26,3.56-11.07,30.84-11.81,33a36.45,36.45,0,0,1,4,5.81,64.5,64.5,0,0,1,6,12.72" transform="translate(-195.39 -311.38)" style="fill:#e1002a"/><path d="M270.71,378.77c-1.12,0-1.68-.74-1.83-2s-5.69-52-6.51-59.65c-.12-1.12-.4-3.18-.4-3.91a1.64,1.64,0,0,1,1.67-1.8c2.63,0,16.94,3.34,32.12,14-4.38,1.23-12.29,5.78-12.26,15.21,0,8.34,6,12.93,6,21.3,0,13.61-15.59,16.9-18.83,16.9" transform="translate(-195.39 -311.38)" style="fill:#ee7601"/><path d="M318.78,404.67a10,10,0,0,0,.69,1.53,1.51,1.51,0,0,0,1.36.86,3.3,3.3,0,0,0,1.27-.34c1.17-.54,47.44-22.08,54.41-25.29,1-.49,2.93-1.34,3.56-1.72a1.7,1.7,0,0,0,1-1.47,1.75,1.75,0,0,0-.27-.9c-.87-1.41-5.35-6.16-12.83-11.36-5.94,3.27-15.22,8.33-29,8.39-3.38,0-4.15-.22-6.46-.21-6.74,0-8.42,2.91-8.66,8.81,0,1.11-.06,2.62-.13,4.26-.21,5.28-.84,12.56-4.87,17.44" transform="translate(-195.39 -311.38)" style="fill:#ee7601"/></svg>